<svg xmlns="http://www.w3.org/2000/svg" viewBox="0 0 32 32">
  <defs>
    <linearGradient id="g" x1="0" y1="0" x2="1" y2="1">
      <stop offset="0%" stop-color="#00966E"/>
      <stop offset="100%" stop-color="#007a59"/>
    </linearGradient>
  </defs>
  <rect width="32" height="32" rx="6" fill="url(#g)"/>
  <g fill="none" stroke="#fff" stroke-width="1.5" stroke-linecap="round" stroke-linejoin="round">
    <path d="M16 8v17"/>
    <path d="M16 8c-1.5-1.5-4-2.5-7-2.5v15c3 0 5.5 1 7 2.5"/>
    <path d="M16 8c1.5-1.5 4-2.5 7-2.5v15c-3 0-5.5 1-7 2.5"/>
  </g>
  <g fill="#fff" opacity=".6">
    <rect x="11" y="10" width="3" height=".8" rx=".4"/>
    <rect x="11" y="12.5" width="3" height=".8" rx=".4"/>
    <rect x="11" y="15" width="3" height=".8" rx=".4"/>
    <rect x="18" y="10" width="3" height=".8" rx=".4"/>
    <rect x="18" y="12.5" width="3" height=".8" rx=".4"/>
    <rect x="18" y="15" width="3" height=".8" rx=".4"/>
  </g>
</svg>
